<svg width="668" height="471" viewBox="0 0 668 471" fill="none" xmlns="http://www.w3.org/2000/svg">
<path d="M486.549 37.2876H344.217C339.876 37.2876 336.358 40.8022 336.358 45.1376V147.973C336.358 152.308 339.876 155.823 344.217 155.823H486.549C490.89 155.823 494.408 152.308 494.408 147.973V45.1376C494.408 40.8022 490.89 37.2876 486.549 37.2876Z" fill="#F2F6FB"/>
<path d="M360.122 146.6C352.221 146.6 345.816 140.138 345.816 132.167C345.816 124.195 352.221 117.733 360.122 117.733C368.022 117.733 374.427 124.195 374.427 132.167C374.427 140.138 368.022 146.6 360.122 146.6ZM360.153 132.106C361.208 132.106 362.064 131.254 362.064 130.202C362.064 129.151 361.208 128.299 360.153 128.299C359.097 128.299 358.242 129.151 358.242 130.202C358.242 131.254 359.097 132.106 360.153 132.106ZM360.153 133.058C358.24 133.058 356.689 134.603 356.689 136.508H363.617C363.617 134.603 362.066 133.058 360.153 133.058Z" fill="#D8DEED"/>
<path d="M345.817 63.2382C345.817 62.3693 346.518 61.665 347.39 61.665H447.687C448.555 61.665 449.26 62.3705 449.26 63.2382V106.182C449.26 107.051 448.558 107.756 447.687 107.756H347.39C346.521 107.756 345.817 107.05 345.817 106.182V63.2382ZM384.687 129.478H463.636C465.219 129.478 466.503 130.76 466.503 132.342C466.503 133.924 465.219 135.206 463.636 135.206H384.687C383.104 135.206 381.82 133.924 381.82 132.342C381.82 130.76 383.104 129.478 384.687 129.478ZM384.687 138.786H477.989C479.572 138.786 480.856 140.068 480.856 141.649C480.856 143.231 479.572 144.513 477.989 144.513H384.687C383.104 144.513 381.82 143.231 381.82 141.649C381.82 140.068 383.104 138.786 384.687 138.786ZM384.687 120.171H443.542C445.125 120.171 446.409 121.453 446.409 123.035C446.409 124.616 445.125 125.898 443.542 125.898H384.687C383.104 125.898 381.82 124.616 381.82 123.035C381.82 121.453 383.104 120.171 384.687 120.171ZM336.358 43.9914C336.358 40.289 339.362 37.2876 343.067 37.2876H488.004C491.709 37.2876 494.713 40.2882 494.713 43.9914V50.6952H336.358V43.9914Z" fill="#E1E5F0"/>
<path d="M461.49 97.6733H480.131C482.918 97.6733 485.178 99.9303 485.178 102.715C485.178 105.499 482.918 107.756 480.131 107.756H461.49C458.703 107.756 456.443 105.499 456.443 102.715C456.443 99.9303 458.703 97.6733 461.49 97.6733Z" fill="#A339FF"/>
<path d="M345.359 47.0387C346.959 47.0387 348.257 45.7426 348.257 44.1438C348.257 42.5451 346.959 41.249 345.359 41.249C343.758 41.249 342.46 42.5451 342.46 44.1438C342.46 45.7426 343.758 47.0387 345.359 47.0387Z" fill="#FF5645"/>
<path d="M354.818 47.0387C356.418 47.0387 357.716 45.7426 357.716 44.1438C357.716 42.5451 356.418 41.249 354.818 41.249C353.217 41.249 351.919 42.5451 351.919 44.1438C351.919 45.7426 353.217 47.0387 354.818 47.0387Z" fill="#FFCB3D"/>
<path d="M364.581 47.0387C366.182 47.0387 367.48 45.7426 367.48 44.1438C367.48 42.5451 366.182 41.249 364.581 41.249C362.98 41.249 361.683 42.5451 361.683 44.1438C361.683 45.7426 362.98 47.0387 364.581 47.0387Z" fill="#3ABF7C"/>
<path d="M474.662 321.693V293.472C474.662 276.359 474.662 259.286 474.662 242.212V216.032C474.662 215.09 458.355 214.305 438.747 214.305H434.66C415.092 214.305 398.746 215.09 398.746 216.032V321.772C398.746 322.714 415.053 323.499 434.66 323.499H438.747C458.315 323.538 474.662 322.714 474.662 321.693Z" fill="#D8DEED"/>
<path d="M358.705 418.759L358.862 418.837C359.687 419.269 360.748 419.033 361.141 418.288L407.155 333.861C407.587 333.076 407.233 332.095 406.408 331.663L406.251 331.584C405.426 331.153 404.365 331.388 403.972 332.134L392.577 353.015C385.15 366.674 377.723 380.294 370.257 393.953L357.958 416.482C357.526 417.267 357.88 418.288 358.705 418.759Z" fill="#D8DEED"/>
<path d="M472.972 330.21H444.17C426.723 330.21 409.276 330.21 391.869 330.21H365.149C364.206 330.21 363.381 330.995 363.381 331.937V332.134C363.381 333.076 364.167 333.861 365.149 333.861H473.051C473.994 333.861 474.819 333.076 474.819 332.134V331.937C474.819 330.995 473.994 330.21 472.972 330.21Z" fill="#D8DEED"/>
<path d="M487 416.482L474.701 393.952C467.275 380.293 459.848 366.674 452.382 353.015L440.987 332.134C440.594 331.388 439.533 331.113 438.708 331.584L438.551 331.663C437.726 332.094 437.372 333.115 437.804 333.861L483.817 418.287C484.21 419.033 485.271 419.308 486.097 418.837L486.254 418.758C487.079 418.287 487.433 417.267 487 416.482Z" fill="#D8DEED"/>
<path d="M290.739 318.531C293.564 319.933 294.528 321.321 294.678 322.535C294.899 324.577 294.421 326.218 293.282 328.917C291.078 334.314 289.204 339.784 287.697 345.4C287.256 345.305 286.816 345.205 286.377 345.1C287.297 348.606 287.265 351.287 287.265 351.287C245.98 351.287 225.681 351.287 226.37 351.287C227.403 351.287 234.869 331.094 261.213 329.042C261.97 328.982 262.705 328.944 263.418 328.926C263.58 328.256 263.856 327.652 264.359 326.737C263.255 324.035 262.405 317.701 262.117 315.063C262.117 314.955 262.154 314.846 262.191 314.738C262.339 314.449 262.746 314.304 263.08 314.449L271.419 318.531C272.843 318.011 274.35 317.538 275.939 317.065C277.444 316.605 278.949 316.214 280.364 315.854L283.349 308.106C283.459 307.809 283.826 307.624 284.12 307.772C284.23 307.809 284.304 307.883 284.377 307.994C285.922 310.172 289.718 315.724 290.739 318.531Z" fill="#FFCB3D"/>
<path d="M224.787 348.8C224.476 346.835 225.306 345.64 227.275 345.214C235.398 344.764 242.625 345.367 248.958 347.02C255.29 348.674 258.978 350.117 260.022 351.351H227.275C225.885 351.351 224.787 350.225 224.787 348.8ZM289.298 335.51C290.245 334.414 293.159 329.7 293.159 329.7C293.159 329.7 289.954 339.42 288.023 345.45C288.133 344.938 286.603 349.031 286.421 347.971V347.935C286.166 346.729 285.182 345.852 283.944 345.779C282.779 345.706 281.54 345.669 280.229 345.669C278.554 345.669 276.842 345.779 275.166 345.998L272.726 338.58C275.093 339.786 277.789 340.224 280.411 340.005C281.322 339.932 282.196 339.749 283.07 339.493C285.474 338.799 287.623 337.374 289.298 335.51ZM280.536 326.54C281.053 327.119 281.895 327.319 282.625 326.989C283.289 326.603 283.642 325.856 283.501 325.097C283.442 324.777 283.653 324.47 283.973 324.411C284.294 324.352 284.601 324.563 284.66 324.883C284.894 326.148 284.297 327.397 283.186 328.025L283.145 328.046C282.157 328.507 281.043 328.379 280.198 327.801C279.935 328.433 279.409 328.974 278.701 329.293C277.278 329.833 275.683 329.301 274.965 328.045C274.803 327.763 274.902 327.403 275.184 327.242C275.467 327.081 275.827 327.179 275.988 327.462C276.413 328.204 277.392 328.53 278.249 328.206C278.898 327.913 279.269 327.312 279.202 326.724C279.2 326.72 279.198 326.716 279.196 326.713C279.025 326.416 278.991 326.046 279.025 325.713C279.059 325.453 279.196 325.231 279.366 325.12C279.707 324.861 280.219 325.009 280.424 325.379C280.605 325.736 280.619 326.17 280.536 326.54ZM270.582 326.557C270.997 327.335 270.617 328.446 270.203 328.52C269.892 328.557 269.512 328.149 269.374 327.89C269.202 327.594 269.167 327.224 269.202 326.89C269.236 326.631 269.374 326.409 269.547 326.298C269.892 326.038 270.375 326.187 270.582 326.557ZM288.278 320.277C288.662 321.055 288.313 322.092 287.895 322.24C287.581 322.277 287.198 321.869 287.058 321.61C286.884 321.314 286.849 320.944 286.884 320.61C286.919 320.351 287.058 320.129 287.233 320.018C287.581 319.758 288.069 319.907 288.278 320.277Z" fill="#DE6903"/>
<path d="M337.36 415.844H399.136C400.061 415.844 400.811 416.593 400.811 417.517C400.811 418.441 400.061 419.19 399.136 419.19H337.36C336.435 419.19 335.685 418.441 335.685 417.517C335.685 416.593 336.435 415.844 337.36 415.844ZM406.651 415.844H445.709C446.634 415.844 447.383 416.593 447.383 417.517C447.383 418.441 446.634 419.19 445.709 419.19H406.651C405.726 419.19 404.976 418.441 404.976 417.517C404.976 416.593 405.726 415.844 406.651 415.844Z" fill="#FF5645"/>
<path d="M445.272 415.844H406.731L409.821 395.539H437.287L445.272 415.844ZM400.173 416.203C399.888 415.978 399.528 415.844 399.136 415.844H337.36C337.299 415.844 337.238 415.847 337.179 415.854C337.158 415.683 337.148 415.48 337.152 415.237C337.194 414.977 337.2 414.68 337.281 414.384C337.767 412.608 338.356 411.428 340.078 410.379C341.801 409.331 343.56 408.394 345.392 407.571C352.151 404.452 354.46 404.491 358.904 401.63C360.743 400.435 362.434 399.051 364.013 397.554C365.066 396.556 367.341 394.934 370.84 392.689L397.954 392.771L400.173 416.203Z" fill="#474961"/>
<path d="M444.955 328.466C444.893 346.655 444.267 370.818 444.051 379.129C444.014 380.287 444.165 383.419 441.893 385.394C441.25 385.973 440.606 386.211 439.394 386.722C438.448 387.131 434.207 388.357 425.725 389.038C425.195 389.072 424.627 389.106 424.059 389.072C415.313 388.765 413.155 388.22 409.785 387.267C407.551 386.654 405.923 384.747 405.695 382.5C404.635 372.592 401.72 345.591 401.492 343.207C401.19 340.177 400.925 336.738 400.697 332.822L400.577 330.989L390.098 326.864C394.474 343.597 398.72 360.929 402.515 378.159C402.704 379.003 403.045 380.903 402.06 382.697C400.243 386.11 395.51 385.934 384.189 387.271C370.861 388.854 365.295 390.508 362.265 387.13C361.243 386.04 360.902 384.914 360.789 384.386C358.025 370.7 344.318 330.98 338.979 302.483C338.979 302.413 338.941 302.377 338.941 302.307C337.237 293.125 343.636 284.47 353.14 283.309C356.283 282.922 359.123 282.549 362.265 282.162C363.218 282.051 364.168 282.019 365.107 282.061L412.021 281.248C439.846 281.006 436.015 277.78 444.716 281.779C450.516 284.445 454.465 292.034 456.564 304.546C457.315 314.059 453.445 322.033 444.955 328.466Z" fill="#8F4AFF"/>
<path opacity="0.176986" d="M445.003 328.43C445.006 327.48 445.008 326.546 445.008 325.632C445.008 318.55 445.046 312.455 445.122 308.539C445.197 305.441 445.765 288.416 438.42 284.875C437.776 284.568 437.132 284.33 435.845 283.887C434.823 283.547 429.522 281.776 422.706 282.049C418.276 282.219 411.612 282.491 406.122 286.748C398.549 292.638 398.738 301.934 398.814 303.432L400.626 331.009L390.153 326.885C387.236 315.729 384.26 304.838 381.321 294.42C379.313 287.33 372.601 282.422 365.239 282.059L412.022 281.248C439.846 281.006 436.015 277.78 444.716 281.779C450.516 284.445 454.466 292.034 456.564 304.546C457.314 314.042 453.46 322.003 445.003 328.43Z" fill="#444444"/>
<path d="M405.099 211.917C405.554 211.721 406.02 211.546 406.496 211.394L414.576 208.699C415.045 208.614 415.511 208.539 415.975 208.475C416.612 207.745 417.909 207.127 420.158 206.437C428.146 203.944 438.341 208.089 441.972 217.378C445.137 225.473 449.341 234.617 448.949 234.737C448.865 234.762 447.031 236.074 444.517 236.885C448.153 250.589 450.111 259.763 450.393 264.407C450.955 273.655 447.841 279.854 437.287 280.64C426.734 281.425 412.045 282.532 410.319 279.465C409.209 277.493 403.994 265.319 394.671 242.941C391.186 244.068 389.366 244.645 389.211 244.672C388.725 244.756 387.071 239.314 385.994 230.708C384.758 220.833 390.754 212.597 400.691 210.912C402.334 210.627 403.803 210.962 405.099 211.917Z" fill="#FF5645"/>
<path opacity="0.176986" d="M405.122 211.935C395.239 216.03 390.332 230.054 393.623 240.423C393.987 241.274 394.345 242.11 394.698 242.933C391.195 244.065 389.366 244.645 389.211 244.672C388.725 244.756 387.071 239.314 385.994 230.708C384.758 220.833 390.754 212.597 400.691 210.912C402.344 210.625 403.821 210.966 405.122 211.935V211.935Z" fill="#444444"/>
<path d="M388.808 213.09C388.808 213.09 388.089 215.915 391.913 215.134C395.737 214.354 396.835 213.982 396.835 213.982L395.851 211.417L388.808 213.09Z" fill="#482D1F"/>
<path d="M410.429 211.102L417.471 243.943L419.145 235.028C427.969 236.755 435.151 237.618 440.69 237.618C440.719 237.618 440.749 237.618 440.779 237.618C439.531 242.386 436.574 263.075 431.973 271.08C426.157 281.199 422.762 282.311 414.174 281.484C413.295 281.399 412.465 281.244 411.682 281.018C412.058 281.14 412.445 281.243 412.844 281.326L368.411 282.008L368.407 282.02L368.272 282.01L368.101 282.013C368.019 282.014 367.94 282.003 367.864 281.98L349.684 280.646C346.767 280.431 344.082 278.979 342.309 276.655L340.266 273.979C339.781 273.344 339.468 272.596 339.355 271.806C338.991 269.254 340.768 266.89 343.324 266.526L348.755 265.753C352.479 265.223 356.259 265.23 359.98 265.774L371.195 267.411C379.709 264.738 391.071 261.228 393.908 260.623L390.385 244.295L394.549 242.663C395.857 245.643 397.087 248.443 398.24 251.062C396.934 238.619 397.081 224.877 395.51 212.67L391.572 212.755C389.225 213.684 384.302 215.246 383.772 211.937C383.772 211.937 390.285 209.298 394.866 207.365L395.207 207.067C395.51 206.807 395.775 206.659 396.154 206.547C396.23 206.51 396.305 206.51 396.381 206.51L396.632 206.474C395.951 206.525 395.472 206.513 395.306 206.495C392.139 206.356 388.257 200.756 386.389 192.596C386.217 191.939 386.157 191.272 386.06 190.609L385.583 183.97C385.451 182.489 385.737 181.009 386.379 179.685C386.441 179.531 386.507 179.413 386.572 179.296C386.803 178.903 387.034 178.51 387.272 178.191C388.185 176.918 389.316 175.963 390.508 175.263C393.345 173.826 396.657 173.466 398.525 173.53C398.793 173.544 399.632 173.584 400.815 173.632C401.932 173.797 403.001 173.854 404.098 173.797C404.705 173.783 405.204 174.262 405.257 174.855L405.725 184.367C405.728 184.438 405.746 184.537 405.78 184.665C409.593 183.116 412.323 184 413.969 187.316C416.439 192.29 414.202 191.214 413.104 192.54C412.313 193.466 411.327 193.924 410.665 194.167C410.541 194.193 410.415 194.265 410.304 194.363L413.269 194.391L413.794 196.436L413.987 199.031L415.935 208.529C415.935 208.529 413.187 210.034 410.429 211.102ZM403.807 205.451L403.584 204.384C403.491 204.423 403.396 204.462 403.3 204.502C400.148 205.817 400.33 205.727 400.111 205.821C399.638 205.965 399.179 206.081 398.742 206.173L402.136 205.692L403.807 205.451ZM434.773 395.646H409.891L410.427 387.434C413.485 388.284 415.885 388.783 424.107 389.071C424.675 389.105 425.243 389.071 425.773 389.037C429.82 388.712 432.901 388.263 435.12 387.838L437.288 395.538L434.773 395.646ZM396.87 385.736L397.954 392.77H370.698L372.496 388.784C375.545 388.435 379.374 387.848 384.236 387.271C389.987 386.592 394.038 386.303 396.87 385.736Z" fill="#DB9E75"/>
<path d="M406.12 205.167L404.689 205.363L403.889 205.479C403.862 205.472 403.834 205.464 403.807 205.456L403.583 204.382L407.647 202.662C407.1 203.899 406.591 204.734 406.12 205.167Z" fill="#482D1F"/>
<path d="M388.788 191.792C388.923 192.452 389.17 193.513 388.911 194.021C388.49 194.841 387.011 193.176 387.125 191.898C387.192 191.37 387.437 191.125 387.738 191.099C388.225 191.02 388.67 191.317 388.788 191.792ZM396.835 190.392C396.97 191.052 397.217 192.113 396.958 192.621C396.537 193.44 395.058 191.776 395.172 190.498C395.239 189.97 395.484 189.725 395.785 189.699C396.272 189.62 396.717 189.917 396.835 190.392Z" fill="#482D1F"/>
<path d="M390.648 191.713L390.633 195.446C390.672 195.904 391.057 196.301 391.501 196.262C391.764 196.26 391.931 196.245 392.602 196.174C392.901 196.142 393.107 196.122 393.35 196.1C393.558 196.082 393.712 195.902 393.694 195.697C393.676 195.493 393.493 195.342 393.285 195.36C393.036 195.381 392.826 195.402 392.522 195.435C391.879 195.503 391.723 195.517 391.465 195.52C391.451 195.52 391.393 195.461 391.389 195.413L391.405 191.714C391.406 191.509 391.237 191.342 391.028 191.342C390.819 191.342 390.649 191.508 390.648 191.713Z" fill="#482D1F"/>
<path d="M394.11 198.202C394.368 198.105 394.986 197.791 395.028 197.414C395.022 197.34 395.05 197.225 395.009 197.192C394.841 197.019 394.364 197.21 393.695 197.379C392.504 197.668 391.486 197.755 391.486 197.755C391.486 197.755 391.882 198.356 392.087 198.525C392.541 198.933 393.709 198.385 394.11 198.202Z" fill="#482D1F"/>
<path d="M403.258 187.643L404.513 187.224C405.23 186.984 405.595 188.04 404.878 188.279L403.623 188.698L402.677 189.014C402.784 189.36 402.857 189.722 402.89 190.096C403.149 193 400.961 195.561 398.002 195.815C395.429 196.036 393.12 194.438 392.393 192.107L391.73 192.209L391.183 192.294C391.295 195.09 389.149 197.508 386.279 197.755C383.321 198.009 380.713 195.86 380.454 192.956C380.195 190.052 382.383 187.492 385.341 187.238C387.995 187.01 390.381 188.718 391.02 191.19L391.554 191.108L391.73 192.209C391.079 191.736 391.077 191.72 391.076 191.704L390.482 191.273L391.02 191.19C391.047 191.293 391.071 191.398 391.091 191.503C391.14 191.313 391.289 191.148 391.554 191.108L392.177 191.011C391.921 188.109 394.109 185.552 397.065 185.298C399.243 185.111 401.231 186.225 402.231 187.985L403.258 187.643ZM390.658 192.375C390.345 192.423 390.053 192.211 390.008 191.903C389.964 191.601 390.175 191.321 390.482 191.273L391.554 191.108L392.177 191.011C392.177 191.013 392.178 191.015 392.178 191.016C392.211 191.394 392.285 191.758 392.393 192.107L391.73 192.209L390.658 192.375ZM391.73 192.209C391.459 192.251 391.263 192.133 391.159 191.96L391.73 192.209ZM397.903 194.704C400.237 194.503 401.963 192.484 401.758 190.193C401.554 187.903 399.497 186.208 397.164 186.409C394.831 186.609 393.105 188.628 393.309 190.919C393.513 193.21 395.57 194.904 397.903 194.704ZM385.44 188.349C383.107 188.549 381.381 190.568 381.585 192.859C381.79 195.15 383.847 196.844 386.18 196.644C388.513 196.443 390.239 194.424 390.035 192.133C390.028 192.056 390.019 191.979 390.008 191.903C389.69 189.722 387.686 188.156 385.44 188.349Z" fill="#482D1F"/>
<path opacity="0.2" d="M412.822 281.326L368.389 282.008L368.385 282.02L368.25 282.01L368.079 282.013C367.997 282.014 367.918 282.003 367.842 281.98L349.662 280.646C346.745 280.431 344.06 278.979 342.287 276.655L340.244 273.979C339.759 273.344 339.446 272.596 339.333 271.806C338.969 269.254 340.746 266.89 343.302 266.526L348.733 265.753C352.457 265.223 356.237 265.23 359.958 265.774L371.173 267.411C379.687 264.738 391.049 261.228 393.886 260.623L390.364 244.295L394.528 242.663C395.911 245.817 397.208 248.77 398.419 251.519C398.63 253.155 398.875 254.784 399.161 256.402C401.957 271.007 405.197 279.735 412.822 281.326Z" fill="#8C2A00"/>
<path d="M417.078 244.139C416.989 243.844 417.16 243.534 417.461 243.446C417.762 243.359 418.078 243.527 418.167 243.822L421.915 256.238C422.005 256.533 421.833 256.844 421.532 256.931C421.231 257.019 420.915 256.85 420.826 256.555L417.078 244.139ZM440.801 238.073C440.487 238.071 440.235 237.82 440.237 237.512C440.24 237.204 440.496 236.956 440.81 236.958C442.39 236.97 443.874 236.744 445.262 236.28C445.559 236.181 445.882 236.337 445.983 236.629C446.084 236.92 445.925 237.237 445.628 237.336C444.117 237.84 442.507 238.086 440.801 238.073Z" fill="#482D1F"/>
<path d="M409.373 194.033C409.949 193.868 411.652 193.501 412.697 192.239C413.799 190.95 414.341 188.926 413.528 187.056C412.797 185.253 410.851 183.89 409.044 184.082C408.029 184.207 407.242 184.76 407.135 184.843C405.891 185.808 405.393 187.045 405.393 187.045L405.093 187.909C404.943 187.716 404.799 187.535 404.662 187.369C401.764 184.708 400.091 182.861 397.155 180.202C395.68 180.702 386.205 184.013 385.493 183.701C385.493 179.924 386.9 178.709 387.137 178.39C388.05 177.117 389.385 175.882 390.577 175.183C393.413 173.745 396.726 173.386 398.594 173.449C398.862 173.464 399.701 173.504 400.884 173.551C401.227 173.559 401.569 173.567 401.988 173.568C402.975 173.558 403.736 173.568 404.192 173.566C409.958 173.444 412.131 172.66 415.133 173.932C415.308 174.011 415.555 174.125 415.846 174.283C416.045 173.768 416.278 173.29 416.51 172.847C422.858 160.771 430.568 163.504 430.568 163.549C430.568 163.594 436.41 163.594 437.905 169.444C438.054 170.025 439.101 174.131 437.427 177.516C435.18 181.946 428.48 184.673 420.856 182.811C420.95 184.107 420.86 185.168 420.82 185.72C420.405 190.01 418.023 192.715 417.327 193.856C416.398 195.379 415.251 196.911 413.885 198.453C412.182 197.449 410.878 196.276 409.973 194.936C409.777 194.641 409.577 194.339 409.373 194.033Z" fill="#482D1F"/>
<path d="M333.892 271.896C338.166 267.725 346.891 264.455 361.308 272.695C363.507 273.91 362.705 277.731 360.267 277.725L335.149 277.556C333.261 277.568 332.467 273.299 333.892 271.896Z" fill="#474961"/>
<path d="M283.664 351.35H289.008C291.764 352.201 293.502 354.004 294.222 356.761C294.943 359.518 293.205 362.163 289.008 364.695L288.965 364.686L288.969 364.695H222.955C218.758 362.163 217.02 359.518 217.741 356.761C218.461 354.004 220.199 352.201 222.955 351.35H283.664Z" fill="#3ABF7C"/>
<path d="M310.148 186.909H190.066C185.35 186.909 181.5 183.422 181.5 179.153V107.53C181.5 103.261 185.35 99.7739 190.066 99.7739H310.148C314.864 99.7739 318.715 103.261 318.715 107.53V179.117C318.715 183.422 314.864 186.909 310.148 186.909Z" fill="#F2F6FB"/>
<path d="M181.539 99.3046C181.539 94.9681 185.058 91.4526 189.398 91.4526H310.816C315.157 91.4526 318.676 94.9702 318.676 99.3046V108.33H181.539V99.3046Z" fill="#E1E5F0"/>
<path d="M202.66 140.123H217.788C219.036 140.123 220.047 141.133 220.047 142.38C220.047 143.626 219.036 144.637 217.788 144.637H202.66C201.412 144.637 200.4 143.626 200.4 142.38C200.4 141.133 201.412 140.123 202.66 140.123ZM202.66 165.243H217.788C219.036 165.243 220.047 166.253 220.047 167.5C220.047 168.746 219.036 169.757 217.788 169.757H202.66C201.412 169.757 200.4 168.746 200.4 167.5C200.4 166.253 201.412 165.243 202.66 165.243ZM225.843 140.123H240.972C242.219 140.123 243.231 141.133 243.231 142.38C243.231 143.626 242.219 144.637 240.972 144.637H225.843C224.595 144.637 223.584 143.626 223.584 142.38C223.584 141.133 224.595 140.123 225.843 140.123ZM225.843 165.243H240.972C242.219 165.243 243.231 166.253 243.231 167.5C243.231 168.746 242.219 169.757 240.972 169.757H225.843C224.595 169.757 223.584 168.746 223.584 167.5C223.584 166.253 224.595 165.243 225.843 165.243ZM249.027 140.123H264.155C265.403 140.123 266.415 141.133 266.415 142.38C266.415 143.626 265.403 144.637 264.155 144.637H249.027C247.779 144.637 246.767 143.626 246.767 142.38C246.767 141.133 247.779 140.123 249.027 140.123ZM249.027 165.243H264.155C265.403 165.243 266.415 166.253 266.415 167.5C266.415 168.746 265.403 169.757 264.155 169.757H249.027C247.779 169.757 246.767 168.746 246.767 167.5C246.767 166.253 247.779 165.243 249.027 165.243ZM202.66 127.563H230.755C232.003 127.563 233.015 128.573 233.015 129.82C233.015 131.066 232.003 132.077 230.755 132.077H202.66C201.412 132.077 200.4 131.066 200.4 129.82C200.4 128.573 201.412 127.563 202.66 127.563ZM266.316 127.563H297.948C299.196 127.563 300.207 128.573 300.207 129.82C300.207 131.066 299.196 132.077 297.948 132.077H266.316C265.068 132.077 264.057 131.066 264.057 129.82C264.057 128.573 265.068 127.563 266.316 127.563ZM266.316 152.683H297.948C299.196 152.683 300.207 153.693 300.207 154.94C300.207 156.186 299.196 157.197 297.948 157.197H266.316C265.068 157.197 264.057 156.186 264.057 154.94C264.057 153.693 265.068 152.683 266.316 152.683ZM238.81 152.683H244.508C245.756 152.683 246.767 153.693 246.767 154.94C246.767 156.186 245.756 157.197 244.508 157.197H238.81C237.563 157.197 236.551 156.186 236.551 154.94C236.551 153.693 237.563 152.683 238.81 152.683ZM252.563 127.563H258.261C259.509 127.563 260.52 128.573 260.52 129.82C260.52 131.066 259.509 132.077 258.261 132.077H252.563C251.315 132.077 250.304 131.066 250.304 129.82C250.304 128.573 251.315 127.563 252.563 127.563ZM272.21 140.123H297.948C299.196 140.123 300.207 141.133 300.207 142.38C300.207 143.626 299.196 144.637 297.948 144.637H272.21C270.963 144.637 269.951 143.626 269.951 142.38C269.951 141.133 270.963 140.123 272.21 140.123Z" fill="#E1E5F0"/>
<path d="M202.66 152.683H230.755C232.003 152.683 233.015 153.694 233.015 154.94C233.015 156.186 232.003 157.197 230.755 157.197H202.66C201.412 157.197 200.4 156.186 200.4 154.94C200.4 153.694 201.412 152.683 202.66 152.683ZM252.563 152.683H258.261C259.509 152.683 260.52 153.694 260.52 154.94C260.52 156.186 259.509 157.197 258.261 157.197H252.563C251.316 157.197 250.304 156.186 250.304 154.94C250.304 153.694 251.316 152.683 252.563 152.683Z" fill="#A339FF"/>
<path d="M238.81 127.563H244.508C245.756 127.563 246.767 128.573 246.767 129.82C246.767 131.066 245.756 132.077 244.508 132.077H238.81C237.562 132.077 236.551 131.066 236.551 129.82C236.551 128.573 237.562 127.563 238.81 127.563ZM272.21 165.243H297.948C299.196 165.243 300.207 166.253 300.207 167.5C300.207 168.746 299.196 169.757 297.948 169.757H272.21C270.962 169.757 269.951 168.746 269.951 167.5C269.951 166.253 270.962 165.243 272.21 165.243Z" fill="#FF5645"/>
<path d="M201.579 79.2852H152.461C148.121 79.2852 144.603 82.7997 144.603 87.1352V111.863C144.603 116.198 148.121 119.713 152.461 119.713H201.579C205.919 119.713 209.438 116.198 209.438 111.863V87.1352C209.438 82.7997 205.919 79.2852 201.579 79.2852Z" fill="#59DCBE"/>
<path d="M165.562 90.2754L152.461 100.804L166.214 108.33" stroke="white" stroke-width="4.35294" stroke-linecap="round" stroke-linejoin="round"/>
<path d="M187.252 108.33L200.4 99.3224L186.647 90.2754" stroke="white" stroke-width="4.35294" stroke-linecap="round" stroke-linejoin="round"/>
<path d="M173.287 112.799L179.273 86.4971" stroke="white" stroke-width="4.35294" stroke-linecap="round" stroke-linejoin="round"/>
<path d="M215.922 363.854C215.986 363.85 216.052 363.848 216.118 363.848H294.313C295.832 363.848 297.064 365.078 297.064 366.595C297.064 368.112 295.832 369.343 294.313 369.343H216.118C216.052 369.343 215.986 369.34 215.922 369.336V416.639C215.922 418.156 214.69 419.386 213.171 419.386C211.652 419.386 210.42 418.156 210.42 416.639L210.42 280.441C210.42 279.119 211.355 278.015 212.601 277.753C212.953 277.589 213.346 277.498 213.76 277.498H447.56C449.08 277.498 450.311 278.728 450.311 280.245C450.311 281.762 449.08 282.993 447.56 282.993H215.922V363.854Z" fill="#D8DEED"/>
<path d="M270.216 271.611L273.995 256.381H245.628C242.681 256.381 240.245 254.144 240.245 251.435V208.3C240.206 205.552 242.603 203.315 245.589 203.315H331.918C334.865 203.315 337.302 205.552 337.302 208.26V251.435C337.302 254.144 334.865 256.381 331.918 256.381H297.349L295.789 271.611H306.024C307.596 271.611 308.814 272.867 308.814 274.398C308.814 275.968 307.556 277.184 306.024 277.184H262.211C260.639 277.184 259.421 275.928 259.421 274.398C259.343 272.867 260.639 271.611 262.211 271.611H270.216Z" fill="#474961"/>
<path fill-rule="evenodd" clip-rule="evenodd" d="M298.52 245.281L298.637 271.65H295.819L298.52 245.281Z" fill="white"/>
</svg>


