<svg xmlns="http://www.w3.org/2000/svg"  viewBox="0 0 50 50" width="50px" height="50px"><path d="M19 27.106C19 27.676 18.583 28 18 28s-1-.324-1-.894V17H9.989v11.862c0 2.143.815 4.857 4.154 5.746.288.076.561.125.828.164.062.009.123.018.183.025.255.03.503.048.736.048.005 0 .011.001.017.001.018 0 .034-.003.052-.003.231-.002.45-.018.66-.043.042-.005.084-.009.125-.014.213-.03.414-.07.603-.118.039-.01.076-.021.114-.031.176-.049.343-.102.496-.16.012-.004.025-.008.036-.013.162-.063.307-.129.442-.196.029-.014.057-.028.085-.043.124-.065.238-.128.336-.189.017-.011.029-.019.046-.03.087-.056.162-.107.225-.153.012-.009.025-.017.036-.026.066-.049.114-.088.149-.118.015-.012.017-.014.027-.023.024-.021.04-.035.04-.035-.137.906-.793 1.799-1.889 2.266-.365.156-.779.264-1.24.309-.228.022-.471.031-.718.034-.06.001-.12 0-.181 0-.274-.003-.553-.014-.832-.041-.028-.003-.055-.007-.083-.01-.262-.027-.521-.067-.773-.115-.048-.009-.097-.017-.145-.027-.26-.055-.507-.122-.738-.2-.047-.016-.091-.033-.136-.05-.232-.086-.451-.18-.633-.291L12 42.25c.326.097.659.182.996.26.103.024.208.044.312.066.241.051.483.097.728.137.115.019.23.037.346.054.259.037.519.066.78.089.092.008.182.02.274.027.349.025.698.04 1.047.041.015 0 .029.002.044.002.044 0 .087-.006.13-.006.336-.003.671-.019 1.006-.047.104-.008.207-.017.31-.028.387-.041.772-.092 1.152-.167 4.242-.809 6.85-5.049 6.85-9.768V17H19V27.106zM45 25.5V24h2.966 0L48 17.073 45 17c-.375-3.625-2.5-8-8.375-8C30.624 9 28 13.915 28 19v16.352c.199.017.387.025.567.025.002 0 .005 0 .008 0 .164 0 .321-.008.473-.023.047-.005.092-.014.138-.02.107-.014.213-.03.316-.052.056-.012.111-.029.166-.043.091-.024.182-.05.272-.082.058-.02.116-.043.173-.067.087-.035.175-.074.262-.117.058-.028.117-.058.175-.089.09-.048.182-.103.273-.159.057-.035.114-.069.172-.107.101-.067.206-.142.311-.219.052-.038.102-.072.155-.113.156-.119.317-.247.486-.389.004-.003.007-.006.011-.009.961-.784 1.537-1.931 1.834-3.157.178-.736.256-1.5.256-2.231l-.031-.52h3L37 21h-3v-2.099c0-1.3.5-2.901 2.375-2.901C38.625 16 39 17.655 39 18.955v6.92c0 .318.015.634.045.947.148 1.562.66 3.035 1.453 4.305.635 1.016 1.45 1.903 2.405 2.601.477.349.99.651 1.531.898 1.084.495 2.286.771 3.565.771V28C46.692 28 45.125 27.125 45 25.5zM8.995 35.312c.092-.027.19-.046.278-.078.152-.055.286-.124.422-.192.065-.032.138-.058.199-.093.188-.108.358-.227.505-.354C9.3 33.843 8 32.087 8 29.111V10H2v19.043c0 1.95.616 4.143 2.229 5.29.308.219.616.401.921.554.104.052.206.083.309.128.2.087.399.176.595.238.121.038.237.057.356.086.174.042.348.089.517.113.124.018.241.02.361.029.127.009.259.03.382.03.028 0 .052-.006.079-.007.163-.003.315-.022.469-.04.112-.013.227-.018.334-.037C8.708 35.398 8.85 35.354 8.995 35.312z"/></svg>