<svg width="103" height="32" viewBox="0 0 103 32" fill="none" xmlns="http://www.w3.org/2000/svg">
<g clip-path="url(#clip0_1973_12174)">
<path fill-rule="evenodd" clip-rule="evenodd" d="M63.8991 25.0249C57.9136 29.5732 49.238 31.9999 41.7684 31.9999C31.2949 31.9999 21.8661 28.0063 14.7328 21.3641C14.1724 20.8417 14.6745 20.1299 15.347 20.5367C23.0453 25.1543 32.5638 27.9323 42.3961 27.9323C49.0273 27.9323 56.322 26.5179 63.0293 23.5827C64.0426 23.139 64.89 24.2668 63.8991 25.0249Z" fill="#FF9900"/>
<path fill-rule="evenodd" clip-rule="evenodd" d="M66.3878 22.0898C65.6256 21.0821 61.3304 21.6137 59.4025 21.8494C58.8152 21.9234 58.7255 21.3964 59.2545 21.0174C62.6755 18.5352 68.2888 19.2517 68.9434 20.0837C69.598 20.9203 68.773 26.7213 65.5584 29.49C65.0652 29.9153 64.5944 29.6888 64.8141 29.1249C65.5359 27.2667 67.1545 23.1021 66.3878 22.0898Z" fill="#FF9900"/>
<path fill-rule="evenodd" clip-rule="evenodd" d="M59.5369 3.4944V1.08157C59.5369 0.716416 59.8059 0.471436 60.1287 0.471436H70.6067C70.943 0.471436 71.212 0.721038 71.212 1.08157V3.14773C71.2075 3.4944 70.925 3.94738 70.4229 4.66383L64.9933 12.6557C67.0109 12.6049 69.1406 12.9146 70.9699 13.9777C71.3823 14.2181 71.4944 14.5694 71.5258 14.916V17.4906C71.5258 17.8419 71.1492 18.2533 70.7546 18.0407C67.531 16.2981 63.2492 16.1086 59.6848 18.0592C59.3216 18.2626 58.9406 17.8558 58.9406 17.5045V15.0593C58.9406 14.6664 58.945 13.9962 59.3261 13.3999L65.6165 4.09992H60.1421C59.8059 4.09992 59.5369 3.85494 59.5369 3.4944Z" fill="black"/>
<path fill-rule="evenodd" clip-rule="evenodd" d="M21.3147 18.5492H18.1269C17.822 18.5261 17.5799 18.2904 17.5575 17.99V1.1233C17.5575 0.785874 17.831 0.517781 18.1717 0.517781H21.1443C21.4537 0.531638 21.7003 0.776627 21.7227 1.0817V3.28652H21.781C22.5566 1.15565 24.0138 0.161865 25.9776 0.161865C27.9727 0.161865 29.2191 1.15565 30.1158 3.28652C30.887 1.15565 32.6401 0.161865 34.5187 0.161865C35.8548 0.161865 37.3164 0.730404 38.2086 2.00615C39.2174 3.42519 39.0112 5.48672 39.0112 7.29403L39.0067 17.9391C39.0067 18.2765 38.7332 18.5492 38.3924 18.5492H35.2091C34.8908 18.5261 34.6352 18.2627 34.6352 17.9391V8.99964C34.6352 8.28781 34.698 6.51286 34.5456 5.83801C34.3079 4.70556 33.5951 4.38662 32.6715 4.38662C31.9003 4.38662 31.0933 4.91818 30.766 5.76868C30.4387 6.61918 30.47 8.04283 30.47 8.99964V17.9391C30.47 18.2765 30.1966 18.5492 29.8558 18.5492H26.6725C26.3497 18.5261 26.0986 18.2627 26.0986 17.9391L26.0941 8.99964C26.0941 7.11838 26.3945 4.34964 24.1303 4.34964C21.8393 4.34964 21.9289 7.04904 21.9289 8.99964V17.9391C21.9289 18.2765 21.6554 18.5492 21.3147 18.5492" fill="black"/>
<path fill-rule="evenodd" clip-rule="evenodd" d="M80.2326 0.161865C84.9627 0.161865 87.5228 4.34964 87.5228 9.6745C87.5228 14.8191 84.6937 18.9005 80.2326 18.9005C75.5877 18.9005 73.059 14.7128 73.059 9.49423C73.059 4.24333 75.6191 0.161865 80.2326 0.161865ZM80.2595 3.60546C77.9101 3.60546 77.7622 6.90576 77.7622 8.96267C77.7622 11.0242 77.7308 15.4246 80.2326 15.4246C82.703 15.4246 82.8196 11.8747 82.8196 9.71147C82.8196 8.28782 82.7613 6.58682 82.3444 5.23712C81.9857 4.06306 81.2728 3.60546 80.2595 3.60546Z" fill="black"/>
<path fill-rule="evenodd" clip-rule="evenodd" d="M93.6564 18.5492H90.4821C90.1637 18.5261 89.9082 18.2627 89.9082 17.9391L89.9037 1.06783C89.9306 0.758138 90.1951 0.517781 90.5179 0.517781H93.4726C93.7505 0.531638 93.9792 0.725783 94.042 0.989253V3.56848H94.1003C94.9925 1.26197 96.2434 0.161865 98.4448 0.161865C99.875 0.161865 101.269 0.693427 102.166 2.14944C103 3.49914 103 5.76868 103 7.40034V18.0177C102.964 18.3135 102.7 18.5492 102.386 18.5492H99.1891C98.8976 18.5261 98.6555 18.3043 98.6241 18.0177V8.85635C98.6241 7.01207 98.8304 4.31266 96.629 4.31266C95.8533 4.31266 95.1404 4.84885 94.7862 5.66236C94.3379 6.69313 94.2796 7.71928 94.2796 8.85635V17.9391C94.2751 18.2765 93.9971 18.5492 93.6564 18.5492" fill="black"/>
<path fill-rule="evenodd" clip-rule="evenodd" d="M51.184 10.4926C51.184 11.7729 51.2154 12.8407 50.5877 13.9777C50.0811 14.9022 49.274 15.4707 48.3818 15.4707C47.1578 15.4707 46.4404 14.5093 46.4404 13.0903C46.4404 10.2892 48.875 9.78073 51.184 9.78073V10.4926ZM54.3987 18.5029C54.188 18.6971 53.8831 18.7109 53.6455 18.5815C52.5873 17.6756 52.3946 17.2549 51.8162 16.3906C50.0676 18.2302 48.8257 18.7803 46.5615 18.7803C43.8759 18.7803 41.791 17.0747 41.791 13.6588C41.791 10.9918 43.1899 9.17521 45.1895 8.28773C46.9202 7.50194 49.3368 7.36328 51.184 7.14603V6.72078C51.184 5.93962 51.2423 5.01516 50.7939 4.34031C50.4084 3.73479 49.6641 3.48519 49.005 3.48519C47.79 3.48519 46.7094 4.12769 46.4449 5.4589C46.3911 5.75473 46.1804 6.04593 45.889 6.0598L42.7998 5.71775C42.5398 5.65766 42.2483 5.44041 42.3246 5.02903C43.033 1.16482 46.4225 0 49.4534 0C51.0047 0 53.0312 0.42525 54.2552 1.63628C55.8065 3.12928 55.6586 5.12148 55.6586 7.28932V12.4108C55.6586 13.95 56.2773 14.6249 56.8601 15.4569C57.0619 15.7527 57.1067 16.1086 56.8467 16.3305C56.1966 16.8898 55.0398 17.9298 54.4032 18.5122L54.3987 18.5029" fill="black"/>
<path fill-rule="evenodd" clip-rule="evenodd" d="M9.39298 10.4928C9.39298 11.7732 9.42437 12.8409 8.79667 13.978C8.29003 14.9024 7.48748 15.471 6.59078 15.471C5.36678 15.471 4.6539 14.5095 4.6539 13.0905C4.6539 10.2894 7.08845 9.78097 9.39298 9.78097V10.4928ZM12.6077 18.5032C12.3969 18.6973 12.0921 18.7112 11.8544 18.5818C10.7963 17.6758 10.608 17.2552 10.0252 16.3908C8.27658 18.2305 7.03913 18.7805 4.77047 18.7805C2.08932 18.7805 0 17.0749 0 13.6591C0 10.992 1.40334 9.17545 3.39851 8.28798C5.12915 7.50219 7.54577 7.36352 9.39298 7.14628V6.72103C9.39298 5.93986 9.45127 5.01541 9.0074 4.34056C8.61733 3.73504 7.87307 3.48544 7.21847 3.48544C6.00344 3.48544 4.91843 4.12793 4.6539 5.45914C4.60009 5.75497 4.38937 6.04617 4.10242 6.06004L1.00879 5.71799C0.748748 5.6579 0.461802 5.44065 0.533539 5.02928C1.24642 1.16506 4.63148 0.000244141 7.66234 0.000244141C9.21364 0.000244141 11.2402 0.425494 12.4642 1.63653C14.0155 3.12952 13.8675 5.12172 13.8675 7.28956V12.411C13.8675 13.9503 14.4863 14.6251 15.0691 15.4571C15.2754 15.7529 15.3202 16.1089 15.0602 16.3307C14.41 16.89 13.2533 17.93 12.6166 18.5124L12.6077 18.5032" fill="black"/>
</g>
<defs>
<clipPath id="clip0_1973_12174">
<rect width="103" height="32" fill="white"/>
</clipPath>
</defs>
</svg>
